<svg width="41" height="41" viewBox="0 0 41 41" fill="none" xmlns="http://www.w3.org/2000/svg">
<path d="M33.4833 35.875L22.7208 25.1125C21.8667 25.7958 20.8844 26.3368 19.774 26.7354C18.6635 27.134 17.4819 27.3333 16.2292 27.3333C13.1257 27.3333 10.4994 26.2582 8.35033 24.108C6.20125 21.9578 5.12614 19.3315 5.125 16.2292C5.12386 13.1268 6.19897 10.5006 8.35033 8.35033C10.5017 6.20011 13.128 5.125 16.2292 5.125C19.3304 5.125 21.9572 6.20011 24.1097 8.35033C26.2622 10.5006 27.3368 13.1268 27.3333 16.2292C27.3333 17.4819 27.134 18.6635 26.7354 19.774C26.3368 20.8844 25.7958 21.8667 25.1125 22.7208L35.875 33.4833L33.4833 35.875ZM16.2292 23.9167C18.3646 23.9167 20.18 23.1696 21.6753 21.6753C23.1707 20.1811 23.9178 18.3657 23.9167 16.2292C23.9155 14.0926 23.1684 12.2778 21.6753 10.7847C20.1823 9.29163 18.3669 8.54394 16.2292 8.54167C14.0915 8.53939 12.2767 9.28707 10.7847 10.7847C9.29277 12.2823 8.54508 14.0972 8.54167 16.2292C8.53825 18.3612 9.28593 20.1766 10.7847 21.6753C12.2835 23.1741 14.0983 23.9212 16.2292 23.9167Z" fill="#C4B8D2"/>
</svg>
