<svg width="19" height="19" viewBox="0 0 19 19" fill="none" xmlns="http://www.w3.org/2000/svg">
<path d="M6.08063 7.84875C5.16021 6.94792 4.7 5.865 4.7 4.6C4.7 3.335 5.16021 2.25208 6.08063 1.35125C7.00104 0.450417 8.1075 0 9.4 0C10.6925 0 11.799 0.450417 12.7194 1.35125C13.6398 2.25208 14.1 3.335 14.1 4.6C14.1 5.865 13.6398 6.94792 12.7194 7.84875C11.799 8.74958 10.6925 9.2 9.4 9.2C8.1075 9.2 7.00104 8.74958 6.08063 7.84875ZM0 18.4V15.18C0 14.5283 0.17155 13.9296 0.51465 13.3837C0.85775 12.8378 1.31287 12.4208 1.88 12.1325C3.09417 11.5383 4.32792 11.0929 5.58125 10.7962C6.83458 10.4995 8.1075 10.3508 9.4 10.35C10.6925 10.3492 11.9654 10.498 13.2188 10.7962C14.4721 11.0944 15.7058 11.5399 16.92 12.1325C17.4879 12.42 17.9434 12.8371 18.2865 13.3837C18.6296 13.9303 18.8008 14.5291 18.8 15.18V18.4H0ZM2.35 16.1H16.45V15.18C16.45 14.9692 16.3963 14.7775 16.289 14.605C16.1817 14.4325 16.0395 14.2983 15.8625 14.2025C14.805 13.685 13.7377 13.2971 12.6606 13.0387C11.5835 12.7803 10.4967 12.6508 9.4 12.65C8.30333 12.6492 7.21646 12.7788 6.13938 13.0387C5.06229 13.2986 3.995 13.6865 2.9375 14.2025C2.76125 14.2983 2.61908 14.4325 2.51098 14.605C2.40288 14.7775 2.34922 14.9692 2.35 15.18V16.1ZM11.0603 6.22495C11.5201 5.77415 11.75 5.2325 11.75 4.6C11.75 3.9675 11.5201 3.42623 11.0603 2.9762C10.6005 2.52617 10.047 2.30077 9.4 2.3C8.75297 2.29923 8.19993 2.52463 7.7409 2.9762C7.28187 3.42777 7.05157 3.96903 7.05 4.6C7.04843 5.23097 7.27873 5.77262 7.7409 6.22495C8.20307 6.67728 8.7561 6.9023 9.4 6.9C10.0439 6.8977 10.5973 6.67268 11.0603 6.22495Z" fill="#E830B1"/>
</svg>
