<svg width="30" height="30" viewBox="0 0 30 30" fill="none" xmlns="http://www.w3.org/2000/svg">
<path d="M17.9014 1L18.4395 4.74707L18.5225 5.32715L19.0693 5.53809C19.9327 5.87139 20.6878 6.32949 21.4463 6.88281L21.8887 7.20605L22.3994 7.00684L26.0527 5.5791L28.9189 10.4014L25.8604 12.7002L25.3994 13.0469L25.4688 13.6201C25.5287 14.1159 25.5693 14.5646 25.5693 15C25.5693 15.434 25.528 15.8663 25.4688 16.3271L25.3955 16.8994L25.8535 17.249L28.9199 19.5957L26.0527 24.4199L22.4023 22.9795L21.8828 22.7754L21.4365 23.1094C20.6927 23.6659 19.935 24.1142 19.0566 24.4668L18.5215 24.6816L18.4395 25.2529L17.9014 29H12.1055L11.5674 25.2529L11.4844 24.6729L10.9375 24.4619C10.0751 24.129 9.32237 23.6721 8.57031 23.1094L8.12402 22.7754L7.60449 22.9795L3.95312 24.4199L1.08594 19.5957L4.15332 17.249L4.61133 16.8994L4.53711 16.3271C4.4779 15.8664 4.4375 15.4339 4.4375 15C4.4375 14.5646 4.47812 14.1159 4.53809 13.6201L4.60742 13.0469L4.14648 12.7002L1.08691 10.4014L3.95312 5.5791L7.60742 7.00684L8.11816 7.20605L8.56055 6.88281C9.31901 6.32949 10.0741 5.87139 10.9375 5.53809L11.4844 5.32715L11.5674 4.74707L12.1055 1H17.9014ZM15.0029 8.75C13.3152 8.75012 11.6909 9.40248 10.4893 10.5713C9.28687 11.7411 8.60645 13.3335 8.60645 15C8.60645 16.6665 9.28688 18.2589 10.4893 19.4287C11.6909 20.5975 13.3152 21.2499 15.0029 21.25C16.6908 21.25 18.3159 20.5976 19.5176 19.4287C20.72 18.2589 21.4004 16.6665 21.4004 15C21.4004 13.3335 20.72 11.7411 19.5176 10.5713C18.3159 9.40237 16.6908 8.75 15.0029 8.75Z" stroke="#C4B8D2" stroke-width="2"/>
</svg>
