<svg width="29" height="29" viewBox="0 0 29 29" fill="none" xmlns="http://www.w3.org/2000/svg">
<path d="M15.7084 10.875H13.2917V8.45835H15.7084M15.7084 20.5417H13.2917V13.2917H15.7084M14.5 2.41669C12.9132 2.41669 11.3419 2.72923 9.87593 3.33648C8.40991 3.94372 7.07785 4.83377 5.95581 5.95581C3.68975 8.22188 2.41669 11.2953 2.41669 14.5C2.41669 17.7047 3.68975 20.7782 5.95581 23.0442C7.07785 24.1663 8.40991 25.0563 9.87593 25.6636C11.3419 26.2708 12.9132 26.5834 14.5 26.5834C17.7047 26.5834 20.7782 25.3103 23.0442 23.0442C25.3103 20.7782 26.5834 17.7047 26.5834 14.5C26.5834 12.9132 26.2708 11.3419 25.6636 9.87593C25.0563 8.40991 24.1663 7.07785 23.0442 5.95581C21.9222 4.83377 20.5901 3.94372 19.1241 3.33648C17.6581 2.72923 16.0868 2.41669 14.5 2.41669Z" fill="white"/>
</svg>
