<svg width="40" height="30" viewBox="0 0 40 30" fill="none" xmlns="http://www.w3.org/2000/svg">
<mask id="path-1-outside-1_3_13" maskUnits="userSpaceOnUse" x="-0.599998" y="-0.159996" width="40" height="30" fill="black">
<rect fill="white" x="-0.599998" y="-0.159996" width="40" height="30"/>
<path d="M1.16 28.84C1.05333 28.84 1 28.7733 1 28.64L1.08 1.16C1.08 1.05334 1.13333 1 1.24 1H6.12C6.22667 1 6.32 1.05334 6.4 1.16L10.04 6.44L13.68 1.16C13.76 1.05334 13.8533 1 13.96 1H18.88C18.9867 1 19.04 1.05334 19.04 1.16L19.12 28.64C19.12 28.7733 19.0667 28.84 18.96 28.84H14.44C14.3333 28.84 14.28 28.7733 14.28 28.64L14.24 8.24L10.04 14.32L5.88 8.24L5.84 28.64C5.84 28.7733 5.78667 28.84 5.68 28.84H1.16ZM22.6444 28.84C22.5377 28.84 22.4844 28.7733 22.4844 28.64L22.5244 1.16C22.5244 1.05334 22.591 1 22.7244 1H27.1644C27.2977 1 27.3644 1.05334 27.3644 1.16L27.3244 12.04H33.3244V1.16C33.3244 1.05334 33.3777 1 33.4844 1H37.9244C38.0577 1 38.1244 1.05334 38.1244 1.16L38.2044 28.64C38.2044 28.7733 38.1377 28.84 38.0044 28.84H33.5244C33.391 28.84 33.3244 28.7733 33.3244 28.64V16.88H27.3244V28.64C27.3244 28.7733 27.271 28.84 27.1644 28.84H22.6444Z"/>
</mask>
<path d="M1.16 28.84C1.05333 28.84 1 28.7733 1 28.64L1.08 1.16C1.08 1.05334 1.13333 1 1.24 1H6.12C6.22667 1 6.32 1.05334 6.4 1.16L10.04 6.44L13.68 1.16C13.76 1.05334 13.8533 1 13.96 1H18.88C18.9867 1 19.04 1.05334 19.04 1.16L19.12 28.64C19.12 28.7733 19.0667 28.84 18.96 28.84H14.44C14.3333 28.84 14.28 28.7733 14.28 28.64L14.24 8.24L10.04 14.32L5.88 8.24L5.84 28.64C5.84 28.7733 5.78667 28.84 5.68 28.84H1.16ZM22.6444 28.84C22.5377 28.84 22.4844 28.7733 22.4844 28.64L22.5244 1.16C22.5244 1.05334 22.591 1 22.7244 1H27.1644C27.2977 1 27.3644 1.05334 27.3644 1.16L27.3244 12.04H33.3244V1.16C33.3244 1.05334 33.3777 1 33.4844 1H37.9244C38.0577 1 38.1244 1.05334 38.1244 1.16L38.2044 28.64C38.2044 28.7733 38.1377 28.84 38.0044 28.84H33.5244C33.391 28.84 33.3244 28.7733 33.3244 28.64V16.88H27.3244V28.64C27.3244 28.7733 27.271 28.84 27.1644 28.84H22.6444Z" fill="url(#paint0_linear_3_13)"/>
<path d="M1 28.64L1.66893e-06 28.6371V28.64H1ZM1.08 1.16L2.08 1.16291V1.16H1.08ZM6.4 1.16L7.22332 0.592415L7.21198 0.575977L7.2 0.560003L6.4 1.16ZM10.04 6.44L9.21669 7.00759L10.04 8.20185L10.8633 7.00759L10.04 6.44ZM13.68 1.16L12.88 0.560005L12.868 0.575977L12.8567 0.592415L13.68 1.16ZM19.04 1.16H18.04L18.04 1.16291L19.04 1.16ZM19.12 28.64H20.12L20.12 28.6371L19.12 28.64ZM14.28 28.64H15.28L15.28 28.638L14.28 28.64ZM14.24 8.24L15.24 8.23804L15.2337 5.04202L13.4172 7.67164L14.24 8.24ZM10.04 14.32L9.21469 14.8847L10.0361 16.0851L10.8628 14.8884L10.04 14.32ZM5.88 8.24L6.70531 7.67532L4.88632 5.01679L4.88 8.23804L5.88 8.24ZM5.84 28.64L4.84 28.638V28.64H5.84ZM1.16 28.84V27.84C1.32737 27.84 1.61131 27.9034 1.82087 28.1653C1.99634 28.3846 2 28.5998 2 28.64H1H1.66893e-06C1.66893e-06 28.8135 0.0303314 29.1287 0.259133 29.4147C0.522022 29.7433 0.885963 29.84 1.16 29.84V28.84ZM1 28.64L2 28.6429L2.08 1.16291L1.08 1.16L0.0800059 1.15709L5.90086e-06 28.6371L1 28.64ZM1.08 1.16H2.08C2.08 1.26081 2.05412 1.5201 1.82711 1.74711C1.6001 1.97412 1.34081 2 1.24 2V1V1.90735e-06C1.03252 1.90735e-06 0.693241 0.0525494 0.412894 0.332897C0.132548 0.613243 0.0800017 0.952524 0.0800017 1.16H1.08ZM1.24 1V2H6.12V1V1.90735e-06H1.24V1ZM6.12 1V2C5.99789 2 5.87706 1.96721 5.77386 1.90825C5.67716 1.85299 5.62281 1.79041 5.6 1.76L6.4 1.16L7.2 0.560003C6.98352 0.271355 6.61953 1.90735e-06 6.12 1.90735e-06V1ZM6.4 1.16L5.57669 1.72759L9.21669 7.00759L10.04 6.44L10.8633 5.87242L7.22332 0.592415L6.4 1.16ZM10.04 6.44L10.8633 7.00759L14.5033 1.72759L13.68 1.16L12.8567 0.592415L9.21669 5.87242L10.04 6.44ZM13.68 1.16L14.48 1.76C14.4572 1.79041 14.4028 1.85299 14.3061 1.90825C14.2029 1.96721 14.0821 2 13.96 2V1V1.90735e-06C13.4605 1.90735e-06 13.0965 0.271355 12.88 0.560005L13.68 1.16ZM13.96 1V2H18.88V1V1.90735e-06H13.96V1ZM18.88 1V2C18.7792 2 18.5199 1.97412 18.2929 1.74711C18.0659 1.5201 18.04 1.26081 18.04 1.16H19.04H20.04C20.04 0.952524 19.9875 0.613243 19.7071 0.332895C19.4268 0.0525494 19.0875 1.90735e-06 18.88 1.90735e-06V1ZM19.04 1.16L18.04 1.16291L18.12 28.6429L19.12 28.64L20.12 28.6371L20.04 1.15709L19.04 1.16ZM19.12 28.64H18.12C18.12 28.5998 18.1237 28.3846 18.2991 28.1653C18.5087 27.9034 18.7926 27.84 18.96 27.84V28.84V29.84C19.234 29.84 19.598 29.7433 19.8609 29.4147C20.0897 29.1287 20.12 28.8135 20.12 28.64H19.12ZM18.96 28.84V27.84H14.44V28.84V29.84H18.96V28.84ZM14.44 28.84V27.84C14.6074 27.84 14.8913 27.9034 15.1009 28.1653C15.2763 28.3846 15.28 28.5998 15.28 28.64H14.28H13.28C13.28 28.8135 13.3103 29.1287 13.5391 29.4147C13.802 29.7433 14.166 29.84 14.44 29.84V28.84ZM14.28 28.64L15.28 28.638L15.24 8.23804L14.24 8.24L13.24 8.24196L13.28 28.642L14.28 28.64ZM14.24 8.24L13.4172 7.67164L9.21723 13.7516L10.04 14.32L10.8628 14.8884L15.0628 8.80837L14.24 8.24ZM10.04 14.32L10.8653 13.7553L6.70531 7.67532L5.88 8.24L5.05469 8.80469L9.21469 14.8847L10.04 14.32ZM5.88 8.24L4.88 8.23804L4.84 28.638L5.84 28.64L6.84 28.642L6.88 8.24196L5.88 8.24ZM5.84 28.64H4.84C4.84 28.5998 4.84367 28.3846 5.01913 28.1653C5.22869 27.9034 5.51263 27.84 5.68 27.84V28.84V29.84C5.95404 29.84 6.31798 29.7433 6.58087 29.4147C6.80967 29.1287 6.84 28.8135 6.84 28.64H5.84ZM5.68 28.84V27.84H1.16V28.84V29.84H5.68V28.84ZM22.4844 28.64L21.4844 28.6385V28.64H22.4844ZM22.5244 1.16L23.5244 1.16146V1.16H22.5244ZM27.3644 1.16L28.3644 1.16368V1.16H27.3644ZM27.3244 12.04L26.3244 12.0363L26.3207 13.04H27.3244V12.04ZM33.3244 12.04V13.04H34.3244V12.04H33.3244ZM38.1244 1.16H37.1244L37.1244 1.16291L38.1244 1.16ZM38.2044 28.64H39.2044L39.2044 28.6371L38.2044 28.64ZM33.3244 16.88H34.3244V15.88H33.3244V16.88ZM27.3244 16.88V15.88H26.3244V16.88H27.3244ZM22.6444 28.84V27.84C22.8117 27.84 23.0957 27.9034 23.3052 28.1653C23.4807 28.3846 23.4844 28.5998 23.4844 28.64H22.4844H21.4844C21.4844 28.8135 21.5147 29.1287 21.7435 29.4147C22.0064 29.7433 22.3703 29.84 22.6444 29.84V28.84ZM22.4844 28.64L23.4844 28.6415L23.5244 1.16146L22.5244 1.16L21.5244 1.15855L21.4844 28.6385L22.4844 28.64ZM22.5244 1.16H23.5244C23.5244 1.32737 23.461 1.61131 23.1991 1.82087C22.9797 1.99634 22.7646 2 22.7244 2V1V1.90735e-06C22.5509 1.90735e-06 22.2357 0.0303326 21.9497 0.259134C21.6211 0.522024 21.5244 0.885965 21.5244 1.16H22.5244ZM22.7244 1V2H27.1644V1V1.90735e-06H22.7244V1ZM27.1644 1V2C27.1242 2 26.909 1.99634 26.6897 1.82087C26.4277 1.61131 26.3644 1.32737 26.3644 1.16H27.3644H28.3644C28.3644 0.885965 28.2677 0.522024 27.9391 0.259134C27.6531 0.0303326 27.3379 1.90735e-06 27.1644 1.90735e-06V1ZM27.3644 1.16L26.3644 1.15633L26.3244 12.0363L27.3244 12.04L28.3244 12.0437L28.3644 1.16368L27.3644 1.16ZM27.3244 12.04V13.04H33.3244V12.04V11.04H27.3244V12.04ZM33.3244 12.04H34.3244V1.16H33.3244H32.3244V12.04H33.3244ZM33.3244 1.16H34.3244C34.3244 1.26081 34.2985 1.5201 34.0715 1.74711C33.8445 1.97412 33.5852 2 33.4844 2V1V1.90735e-06C33.2769 1.90735e-06 32.9376 0.0525494 32.6573 0.332895C32.3769 0.613243 32.3244 0.952524 32.3244 1.16H33.3244ZM33.4844 1V2H37.9244V1V1.90735e-06H33.4844V1ZM37.9244 1V2C37.8842 2 37.669 1.99634 37.4497 1.82087C37.1877 1.61131 37.1244 1.32737 37.1244 1.16H38.1244H39.1244C39.1244 0.885965 39.0277 0.522024 38.6991 0.259134C38.4131 0.0303326 38.0979 1.90735e-06 37.9244 1.90735e-06V1ZM38.1244 1.16L37.1244 1.16291L37.2044 28.6429L38.2044 28.64L39.2044 28.6371L39.1244 1.15709L38.1244 1.16ZM38.2044 28.64H37.2044C37.2044 28.5525 37.2269 28.3032 37.4473 28.0829C37.6676 27.8626 37.9169 27.84 38.0044 27.84V28.84V29.84C38.2252 29.84 38.5745 29.7841 38.8615 29.4971C39.1485 29.2101 39.2044 28.8608 39.2044 28.64H38.2044ZM38.0044 28.84V27.84H33.5244V28.84V29.84H38.0044V28.84ZM33.5244 28.84V27.84C33.6119 27.84 33.8611 27.8626 34.0815 28.0829C34.3018 28.3032 34.3244 28.5525 34.3244 28.64H33.3244H32.3244C32.3244 28.8608 32.3803 29.2101 32.6673 29.4971C32.9543 29.7841 33.3036 29.84 33.5244 29.84V28.84ZM33.3244 28.64H34.3244V16.88H33.3244H32.3244V28.64H33.3244ZM33.3244 16.88V15.88H27.3244V16.88V17.88H33.3244V16.88ZM27.3244 16.88H26.3244V28.64H27.3244H28.3244V16.88H27.3244ZM27.3244 28.64H26.3244C26.3244 28.5998 26.328 28.3846 26.5035 28.1653C26.7131 27.9034 26.997 27.84 27.1644 27.84V28.84V29.84C27.4384 29.84 27.8024 29.7433 28.0652 29.4147C28.294 29.1287 28.3244 28.8135 28.3244 28.64H27.3244ZM27.1644 28.84V27.84H22.6444V28.84V29.84H27.1644V28.84Z" fill="white" mask="url(#path-1-outside-1_3_13)"/>
<defs>
<linearGradient id="paint0_linear_3_13" x1="25.9" y1="-9.16" x2="25.9" y2="31.84" gradientUnits="userSpaceOnUse">
<stop stop-color="#E830B1"/>
<stop offset="1" stop-color="white"/>
</linearGradient>
</defs>
</svg>
