<svg width="20" height="15" viewBox="0 0 20 15" fill="none" xmlns="http://www.w3.org/2000/svg">
<path d="M7 9.75C10.3564 9.75 11.8697 10.7046 12.5605 11.4941C12.9145 11.8987 13.0868 12.2965 13.1709 12.585C13.2131 12.7295 13.2328 12.8461 13.2422 12.9209C13.2468 12.9582 13.2492 12.9852 13.25 12.999V14.25H0.75V12.999C0.750808 12.9852 0.753153 12.9582 0.757812 12.9209C0.767172 12.8461 0.786949 12.7295 0.829102 12.585C0.913225 12.2965 1.08549 11.8987 1.43945 11.4941C2.13029 10.7046 3.64358 9.75 7 9.75ZM6.46387 0.802734C6.9972 0.696726 7.55036 0.750893 8.05273 0.958984C8.55516 1.16713 8.98399 1.52047 9.28613 1.97266C9.58825 2.42486 9.74999 2.95616 9.75 3.5C9.75 4.22934 9.46005 4.92861 8.94434 5.44434C8.42861 5.96006 7.72935 6.25 7 6.25C6.45615 6.25 5.92486 6.08825 5.47266 5.78613C5.02047 5.48399 4.66713 5.05517 4.45898 4.55273C4.25089 4.05034 4.19671 3.49721 4.30273 2.96387C4.40884 2.43042 4.67107 1.94026 5.05566 1.55566C5.44026 1.17108 5.93043 0.908842 6.46387 0.802734ZM12.9961 0.75H13C13.7293 0.75 14.4286 1.03995 14.9443 1.55566C15.4601 2.07138 15.75 2.77067 15.75 3.5C15.75 4.22934 15.46 4.92861 14.9443 5.44434C14.493 5.89567 13.9011 6.17388 13.2715 6.23633L13 6.25H12.9961C12.6993 6.25133 12.4067 6.20123 12.1289 6.10645C12.5378 5.30253 12.7539 4.41 12.7539 3.5C12.7539 2.59 12.5378 1.69747 12.1289 0.893555C12.4067 0.798772 12.6993 0.748666 12.9961 0.75ZM16.75 12.9854L16.749 12.9707C16.7145 12.0845 16.4861 11.2162 16.0801 10.4277C16.0099 10.2915 15.9326 10.1594 15.8525 10.0293C17.4008 10.4045 18.218 11.0549 18.6553 11.6055C18.9606 11.99 19.109 12.3595 19.1816 12.625C19.218 12.758 19.2352 12.8643 19.2432 12.9316C19.2471 12.9652 19.2493 12.989 19.25 13.001V14.25H16.75V12.9854Z" stroke="#C4B8D2" stroke-width="1.5"/>
</svg>
